<svg id="visual" viewBox="0 0 900 450" width="900" height="200" preserveAspectRatio="none" xmlns="http://www.w3.org/2000/svg" xmlns:xlink="http://www.w3.org/1999/xlink" version="1.1"><path d="M0 258L25 240C50 222 100 186 150 173.2C200 160.3 250 170.7 300 173.7C350 176.7 400 172.3 450 163.3C500 154.3 550 140.7 600 136.2C650 131.7 700 136.3 750 143.2C800 150 850 159 875 163.5L900 168L900 0L875 0C850 0 800 0 750 0C700 0 650 0 600 0C550 0 500 0 450 0C400 0 350 0 300 0C250 0 200 0 150 0C100 0 50 0 25 0L0 0Z" fill="#004cbb"></path><path d="M0 343L25 325C50 307 100 271 150 265C200 259 250 283 300 290.5C350 298 400 289 450 272.5C500 256 550 232 600 235.8C650 239.7 700 271.3 750 281.8C800 292.3 850 281.7 875 276.3L900 271L900 166L875 161.5C850 157 800 148 750 141.2C700 134.3 650 129.7 600 134.2C550 138.7 500 152.3 450 161.3C400 170.3 350 174.7 300 171.7C250 168.7 200 158.3 150 171.2C100 184 50 220 25 238L0 256Z" fill="#0066ff"></path><path d="M0 451L25 451C50 451 100 451 150 451C200 451 250 451 300 451C350 451 400 451 450 451C500 451 550 451 600 451C650 451 700 451 750 451C800 451 850 451 875 451L900 451L900 269L875 274.3C850 279.7 800 290.3 750 279.8C700 269.3 650 237.7 600 233.8C550 230 500 254 450 270.5C400 287 350 296 300 288.5C250 281 200 257 150 263C100 269 50 305 25 323L0 341Z" fill="#6198ff"></path></svg>