<svg id="visual" viewBox="0 0 900 450" width="900" height="450" xmlns="http://www.w3.org/2000/svg" xmlns:xlink="http://www.w3.org/1999/xlink" version="1.1"><path d="M0 399L16.7 395.3C33.3 391.7 66.7 384.3 100 375C133.3 365.7 166.7 354.3 200 353.7C233.3 353 266.7 363 300 359C333.3 355 366.7 337 400 336C433.3 335 466.7 351 500 356C533.3 361 566.7 355 600 357.2C633.3 359.3 666.7 369.7 700 366.8C733.3 364 766.7 348 800 344C833.3 340 866.7 348 883.3 352L900 356L900 451L883.3 451C866.7 451 833.3 451 800 451C766.7 451 733.3 451 700 451C666.7 451 633.3 451 600 451C566.7 451 533.3 451 500 451C466.7 451 433.3 451 400 451C366.7 451 333.3 451 300 451C266.7 451 233.3 451 200 451C166.7 451 133.3 451 100 451C66.7 451 33.3 451 16.7 451L0 451Z" fill="#0066FF" stroke-linecap="round" stroke-linejoin="miter"></path></svg>