<svg id="visual" viewBox="0 0 900 450" width="900" height="450" xmlns="http://www.w3.org/2000/svg" xmlns:xlink="http://www.w3.org/1999/xlink" version="1.1"><path d="M0 98L16.7 105.3C33.3 112.7 66.7 127.3 100 146.2C133.3 165 166.7 188 200 189.5C233.3 191 266.7 171 300 178.8C333.3 186.7 366.7 222.3 400 224.3C433.3 226.3 466.7 194.7 500 184.8C533.3 175 566.7 187 600 182.8C633.3 178.7 666.7 158.3 700 164C733.3 169.7 766.7 201.3 800 209.2C833.3 217 866.7 201 883.3 193L900 185L900 0L883.3 0C866.7 0 833.3 0 800 0C766.7 0 733.3 0 700 0C666.7 0 633.3 0 600 0C566.7 0 533.3 0 500 0C466.7 0 433.3 0 400 0C366.7 0 333.3 0 300 0C266.7 0 233.3 0 200 0C166.7 0 133.3 0 100 0C66.7 0 33.3 0 16.7 0L0 0Z" fill="#1a4301" stroke-linecap="round" stroke-linejoin="miter"></path></svg>
