<svg id="visual" viewBox="0 0 900 450" width="900" height="450" xmlns="http://www.w3.org/2000/svg" xmlns:xlink="http://www.w3.org/1999/xlink" version="1.1"><path d="M0 31L16.7 36.5C33.3 42 66.7 53 100 56.8C133.3 60.7 166.7 57.3 200 54.2C233.3 51 266.7 48 300 45C333.3 42 366.7 39 400 38.5C433.3 38 466.7 40 500 37.8C533.3 35.7 566.7 29.3 600 31.2C633.3 33 666.7 43 700 47.7C733.3 52.3 766.7 51.7 800 53.7C833.3 55.7 866.7 60.3 883.3 62.7L900 65L900 0L883.3 0C866.7 0 833.3 0 800 0C766.7 0 733.3 0 700 0C666.7 0 633.3 0 600 0C566.7 0 533.3 0 500 0C466.7 0 433.3 0 400 0C366.7 0 333.3 0 300 0C266.7 0 233.3 0 200 0C166.7 0 133.3 0 100 0C66.7 0 33.3 0 16.7 0L0 0Z" fill="#657d27" stroke-linecap="round" stroke-linejoin="miter"></path></svg>