<svg id="visual" viewBox="0 0 900 450" width="900" height="450" xmlns="http://www.w3.org/2000/svg" xmlns:xlink="http://www.w3.org/1999/xlink" version="1.1"><path d="M0 374L16.7 368.7C33.3 363.3 66.7 352.7 100 338.7C133.3 324.7 166.7 307.3 200 306.2C233.3 305 266.7 320 300 314.2C333.3 308.3 366.7 281.7 400 280.2C433.3 278.7 466.7 302.3 500 309.7C533.3 317 566.7 308 600 311.2C633.3 314.3 666.7 329.7 700 325.3C733.3 321 766.7 297 800 291C833.3 285 866.7 297 883.3 303L900 309L900 451L883.3 451C866.7 451 833.3 451 800 451C766.7 451 733.3 451 700 451C666.7 451 633.3 451 600 451C566.7 451 533.3 451 500 451C466.7 451 433.3 451 400 451C366.7 451 333.3 451 300 451C266.7 451 233.3 451 200 451C166.7 451 133.3 451 100 451C66.7 451 33.3 451 16.7 451L0 451Z" fill="#1a4301" stroke-linecap="round" stroke-linejoin="miter"></path></svg>