<svg id="visual" viewBox="0 0 900 450" width="900" height="450" xmlns="http://www.w3.org/2000/svg" xmlns:xlink="http://www.w3.org/1999/xlink" version="1.1"><path d="M0 350L16.7 342.7C33.3 335.3 66.7 320.7 100 301.8C133.3 283 166.7 260 200 258.5C233.3 257 266.7 277 300 269.2C333.3 261.3 366.7 225.7 400 223.7C433.3 221.7 466.7 253.3 500 263.2C533.3 273 566.7 261 600 265.2C633.3 269.3 666.7 289.7 700 284C733.3 278.3 766.7 246.7 800 238.8C833.3 231 866.7 247 883.3 255L900 263L900 451L883.3 451C866.7 451 833.3 451 800 451C766.7 451 733.3 451 700 451C666.7 451 633.3 451 600 451C566.7 451 533.3 451 500 451C466.7 451 433.3 451 400 451C366.7 451 333.3 451 300 451C266.7 451 233.3 451 200 451C166.7 451 133.3 451 100 451C66.7 451 33.3 451 16.7 451L0 451Z" fill="#657d27" stroke-linecap="round" stroke-linejoin="miter"></path></svg>